<?xml version="1.0" standalone="no"?>
<!DOCTYPE svg PUBLIC "-//W3C//DTD SVG 20010904//EN"
 "http://www.w3.org/TR/2001/REC-SVG-20010904/DTD/svg10.dtd">
<svg version="1.0" xmlns="http://www.w3.org/2000/svg"
 width="50.000000pt" height="50.000000pt" viewBox="0 0 50.000000 50.000000"
 preserveAspectRatio="xMidYMid meet">
<metadata>
Created by potrace 1.15, written by Peter Selinger 2001-2017
</metadata>
<g transform="translate(0.000000,50.000000) scale(0.100000,-0.100000)"
fill="#000000" stroke="none">
<path d="M70 424 c-12 -13 -2 -26 63 -92 l77 -77 -75 -75 c-41 -41 -75 -80
-75 -86 0 -6 7 -17 16 -24 13 -12 26 -2 95 66 l79 79 78 -78 c73 -73 78 -76
95 -60 16 17 13 22 -60 95 l-78 78 79 79 c68 69 78 82 66 95 -7 9 -18 16 -24
16 -6 0 -45 -34 -86 -75 l-75 -75 -75 75 c-41 41 -78 75 -81 75 -4 0 -12 -7
-19 -16z"/>
</g>
</svg>
