<?xml version="1.0" standalone="no"?>
<!DOCTYPE svg PUBLIC "-//W3C//DTD SVG 20010904//EN"
 "http://www.w3.org/TR/2001/REC-SVG-20010904/DTD/svg10.dtd">
<svg version="1.0" xmlns="http://www.w3.org/2000/svg"
 width="50.000000pt" height="50.000000pt" viewBox="0 0 50.000000 50.000000"
 preserveAspectRatio="xMidYMid meet">
<metadata>
Created by potrace 1.15, written by Peter Selinger 2001-2017
</metadata>
<g transform="translate(0.000000,50.000000) scale(0.100000,-0.100000)"
fill="#000000" stroke="none">
<path d="M52 448 c-17 -17 -17 -379 0 -396 17 -17 379 -17 396 0 17 17 17 379
0 396 -17 17 -379 17 -396 0z m224 -73 c7 -27 32 -33 52 -13 18 18 45 -9 32
-32 -16 -30 -11 -47 15 -54 16 -4 25 -13 25 -26 0 -13 -9 -22 -25 -26 -27 -7
-33 -32 -13 -52 9 -10 8 -16 -5 -29 -13 -13 -19 -15 -29 -5 -20 20 -45 14 -52
-13 -9 -34 -43 -34 -52 0 -7 27 -32 33 -52 13 -9 -10 -16 -8 -29 5 -13 13 -14
19 -5 29 20 20 14 45 -13 52 -34 9 -34 43 0 52 27 7 33 32 13 52 -10 10 -8 16
5 29 13 13 20 15 29 5 20 -20 45 -14 52 13 4 16 13 25 26 25 13 0 22 -9 26
-25z"/>
</g>
</svg>
